<svg width="49" height="45" viewBox="0 0 49 45" fill="none" xmlns="http://www.w3.org/2000/svg">
<path d="M47.9156 15.3153L25.4156 0.31528C25.1075 0.10971 24.7454 0 24.375 0C24.0046 0 23.6425 0.10971 23.3344 0.31528L0.834381 15.3153C0.577531 15.4866 0.36697 15.7188 0.22141 15.9911C0.0758602 16.2634 -0.000199607 16.5674 3.93407e-07 16.8762V41.2512C3.93407e-07 42.2458 0.39509 43.1996 1.09835 43.9029C1.80161 44.6061 2.75544 45.0012 3.75 45.0012H45C45.9946 45.0012 46.9484 44.6061 47.6516 43.9029C48.3549 43.1996 48.75 42.2458 48.75 41.2512V16.8762C48.7502 16.5674 48.6741 16.2634 48.5286 15.9911C48.383 15.7188 48.1725 15.4866 47.9156 15.3153ZM17.0438 30.0012L3.75 39.3762V20.5161L17.0438 30.0012ZM20.8805 31.8762H27.8695L41.1422 41.2512H7.6078L20.8805 31.8762ZM31.7062 30.0012L45 20.5161V39.3762L31.7062 30.0012ZM24.375 4.12856L43.5727 16.9278L27.8695 28.1262H20.8852L5.182 16.9278L24.375 4.12856Z" fill="white"/>
</svg>
