<svg width="6" height="15" viewBox="0 0 6 15" fill="none" xmlns="http://www.w3.org/2000/svg">
<g clip-path="url(#clip0_225_112)">
<path d="M4.33203 2.33333C4.33203 1.6 3.73203 1 2.9987 1C2.26536 1 1.66536 1.6 1.66536 2.33333C1.66536 3.06667 2.26536 3.66667 2.9987 3.66667C3.73203 3.66667 4.33203 3.06667 4.33203 2.33333Z" stroke="white" stroke-width="1.5"/>
<path d="M4.33203 2.33333C4.33203 1.6 3.73203 1 2.9987 1C2.26536 1 1.66536 1.6 1.66536 2.33333C1.66536 3.06667 2.26536 3.66667 2.9987 3.66667C3.73203 3.66667 4.33203 3.06667 4.33203 2.33333Z" stroke="black" stroke-opacity="0.2" stroke-width="1.5"/>
</g>
<g clip-path="url(#clip1_225_112)">
<path d="M4.33203 7.33333C4.33203 6.6 3.73203 6 2.9987 6C2.26536 6 1.66536 6.6 1.66536 7.33333C1.66536 8.06667 2.26536 8.66667 2.9987 8.66667C3.73203 8.66667 4.33203 8.06667 4.33203 7.33333Z" stroke="white" stroke-width="1.5"/>
<path d="M4.33203 7.33333C4.33203 6.6 3.73203 6 2.9987 6C2.26536 6 1.66536 6.6 1.66536 7.33333C1.66536 8.06667 2.26536 8.66667 2.9987 8.66667C3.73203 8.66667 4.33203 8.06667 4.33203 7.33333Z" stroke="black" stroke-opacity="0.2" stroke-width="1.5"/>
</g>
<g clip-path="url(#clip2_225_112)">
<path d="M4.33203 12.3333C4.33203 11.6 3.73203 11 2.9987 11C2.26536 11 1.66536 11.6 1.66536 12.3333C1.66536 13.0667 2.26536 13.6667 2.9987 13.6667C3.73203 13.6667 4.33203 13.0667 4.33203 12.3333Z" stroke="white" stroke-width="1.5"/>
<path d="M4.33203 12.3333C4.33203 11.6 3.73203 11 2.9987 11C2.26536 11 1.66536 11.6 1.66536 12.3333C1.66536 13.0667 2.26536 13.6667 2.9987 13.6667C3.73203 13.6667 4.33203 13.0667 4.33203 12.3333Z" stroke="black" stroke-opacity="0.2" stroke-width="1.5"/>
<g clip-path="url(#clip3_225_112)">
<path d="M4.33203 12.3333C4.33203 11.6 3.73203 11 2.9987 11C2.26536 11 1.66536 11.6 1.66536 12.3333C1.66536 13.0667 2.26536 13.6667 2.9987 13.6667C3.73203 13.6667 4.33203 13.0667 4.33203 12.3333Z" stroke="white" stroke-width="1.5"/>
<path d="M4.33203 12.3333C4.33203 11.6 3.73203 11 2.9987 11C2.26536 11 1.66536 11.6 1.66536 12.3333C1.66536 13.0667 2.26536 13.6667 2.9987 13.6667C3.73203 13.6667 4.33203 13.0667 4.33203 12.3333Z" stroke="black" stroke-opacity="0.2" stroke-width="1.5"/>
</g>
</g>
<defs>
<clipPath id="clip0_225_112">
<rect width="6" height="5" fill="white"/>
</clipPath>
<clipPath id="clip1_225_112">
<rect width="6" height="5" fill="white" transform="translate(0 5)"/>
</clipPath>
<clipPath id="clip2_225_112">
<rect width="6" height="5" fill="white" transform="translate(0 10)"/>
</clipPath>
<clipPath id="clip3_225_112">
<rect width="6" height="5" fill="white" transform="translate(0 10)"/>
</clipPath>
</defs>
</svg>
