<svg width="24" height="24" viewBox="0 0 24 24" fill="none" xmlns="http://www.w3.org/2000/svg">
<path d="M17.9175 2.79L16.4175 1.8975C15.7617 1.51038 14.9792 1.39878 14.2413 1.58712C13.5034 1.77546 12.8701 2.24842 12.48 2.9025L4.98 15.54C4.75514 15.9148 4.64801 16.3486 4.6725 16.785L4.9425 21.75C4.94881 21.8737 4.98568 21.994 5.04981 22.1C5.11394 22.206 5.20333 22.2945 5.31 22.3575C5.42577 22.4262 5.55789 22.4625 5.6925 22.4625C5.80424 22.4618 5.91443 22.4362 6.015 22.3875L10.5 20.25C10.8938 20.063 11.2229 19.7627 11.445 19.3875L18.4725 7.5L18.9225 6.75C19.1177 6.42431 19.2466 6.06324 19.3017 5.68755C19.3568 5.31187 19.3371 4.92899 19.2437 4.56095C19.1503 4.19291 18.9851 3.84697 18.7575 3.54304C18.5299 3.23911 18.2444 2.98319 17.9175 2.79ZM14.9175 3C15.1623 3.00088 15.4027 3.0655 15.615 3.1875L17.115 4.08C17.2777 4.16951 17.4206 4.29091 17.5352 4.43695C17.6499 4.58299 17.7339 4.75066 17.7822 4.92992C17.8305 5.10918 17.8421 5.29635 17.8164 5.48022C17.7907 5.66409 17.7281 5.84088 17.6325 6L17.565 6.1125L13.695 3.75L13.7625 3.6375C13.8892 3.43895 14.0646 3.27612 14.272 3.16454C14.4795 3.05295 14.712 2.9963 14.9475 3H14.9175ZM10.92 17.2875L10.6725 16.8975C10.6089 16.8004 10.5237 16.7194 10.4235 16.6608C10.3232 16.6022 10.2108 16.5677 10.095 16.56L8.7975 16.5L8.0925 15.405C8.03546 15.2934 7.95134 15.1978 7.84784 15.127C7.74433 15.0563 7.62474 15.0126 7.5 15H7.05L12.93 5.07L16.8 7.365L10.92 17.2875ZM9.8475 18.8775L6.3825 20.5425L6.18 16.7025C6.16134 16.616 6.16134 16.5265 6.18 16.44L7.035 16.5L7.74 17.595C7.80358 17.6921 7.88883 17.7731 7.98904 17.8317C8.08925 17.8903 8.20169 17.9248 8.3175 17.9325L9.615 18.0225L10.0575 18.7125C9.99625 18.7778 9.92544 18.8334 9.8475 18.8775Z" fill="#4d5064"/>
</svg>
