<svg width="16" height="16" viewBox="0 0 16 16" fill="none" xmlns="http://www.w3.org/2000/svg">
<g clip-path="url(#clip0_267_308)">
<path d="M7.99921 0.5C8.8735 0.5 9.58226 1.17157 9.58226 2V6.50005H14.3314C15.2057 6.50005 15.9144 7.17162 15.9144 8.00005C15.9144 8.82848 15.2057 9.50005 14.3314 9.50005H9.58226L9.58225 14C9.58225 14.8284 8.8735 15.5 7.99921 15.5C7.12492 15.5 6.41616 14.8284 6.41616 14V9.50005H1.66703C0.792738 9.50005 0.0839844 8.82848 0.0839844 8.00005C0.0839844 7.17162 0.792738 6.50005 1.66703 6.50005H6.41616V2C6.41616 1.17157 7.12492 0.5 7.99921 0.5Z" fill="#FAFAFA"/>
</g>
<defs>
<clipPath id="clip0_267_308">
<rect width="16" height="16" fill="white"/>
</clipPath>
</defs>
</svg>
