<svg width="24" height="24" viewBox="0 0 24 24" fill="none" xmlns="http://www.w3.org/2000/svg">
<g clip-path="url(#clip0_208_58)">
<mask id="mask0_208_58" style="mask-type:luminance" maskUnits="userSpaceOnUse" x="0" y="0" width="24" height="24">
<path d="M0 0H24V24H0V0Z" fill="white"/>
</mask>
<g mask="url(#mask0_208_58)">
<path d="M5 11L10 14H14L19 11M5 11L2 9V6L10 2H14L22 6V9L19 11M5 11V18C6 19 9 21 12 21C15 21 17 19 19 18V11" stroke="white" stroke-width="1.5"/>
<path d="M22 10V15" stroke="white"/>
<path d="M23 17L22 15C22 14 22 14 22 15L21 17V19L22 20L23 19V17Z" fill="white"/>
</g>
</g>
<defs>
<clipPath id="clip0_208_58">
<rect width="24" height="24" fill="white"/>
</clipPath>
</defs>
</svg>
