<svg width="24" height="24" viewBox="0 0 24 24" fill="none" xmlns="http://www.w3.org/2000/svg">
<path d="M14.4375 6.6875H14.9375V6.1875V4.5C14.9375 4.28451 15.0231 4.07785 15.1755 3.92548C15.3278 3.7731 15.5345 3.6875 15.75 3.6875H20.25C20.4655 3.6875 20.6722 3.7731 20.8245 3.92548C20.9769 4.07785 21.0625 4.28451 21.0625 4.5V9C21.0625 9.21549 20.9769 9.42215 20.8245 9.57452C20.6722 9.7269 20.4655 9.8125 20.25 9.8125H15.75C15.5345 9.8125 15.3278 9.7269 15.1755 9.57452C15.0231 9.42215 14.9375 9.21549 14.9375 9V7.3125V6.8125H14.4375H13.5C12.9198 6.8125 12.3634 7.04297 11.9532 7.4532C11.543 7.86344 11.3125 8.41984 11.3125 9V15C11.3125 15.5802 11.543 16.1366 11.9532 16.5468C12.3634 16.957 12.9198 17.1875 13.5 17.1875H14.4375H14.9375V16.6875V15C14.9375 14.7845 15.0231 14.5778 15.1755 14.4255C15.3278 14.2731 15.5345 14.1875 15.75 14.1875H20.25C20.4655 14.1875 20.6722 14.2731 20.8245 14.4255C20.9769 14.5778 21.0625 14.7845 21.0625 15V19.5C21.0625 19.7155 20.9769 19.9222 20.8245 20.0745C20.6722 20.2269 20.4655 20.3125 20.25 20.3125H15.75C15.5345 20.3125 15.3278 20.2269 15.1755 20.0745C15.0231 19.9222 14.9375 19.7155 14.9375 19.5V17.8125V17.3125H14.4375H13.5C12.8867 17.3125 12.2985 17.0689 11.8648 16.6352C11.4311 16.2015 11.1875 15.6133 11.1875 15V12.5625V12.0625H10.6875H7.3125H6.8125V12.5625V13.5C6.8125 13.7155 6.7269 13.9222 6.57452 14.0745C6.42215 14.2269 6.21549 14.3125 6 14.3125H3C2.78451 14.3125 2.57785 14.2269 2.42548 14.0745C2.2731 13.9222 2.1875 13.7155 2.1875 13.5V10.5C2.1875 10.2845 2.2731 10.0778 2.42548 9.92548C2.57785 9.7731 2.78451 9.6875 3 9.6875H6C6.21549 9.6875 6.42215 9.7731 6.57452 9.92548C6.7269 10.0778 6.8125 10.2845 6.8125 10.5V11.4375V11.9375H7.3125H10.6875H11.1875V11.4375V9C11.1875 8.38669 11.4311 7.79849 11.8648 7.36482C12.2985 6.93114 12.8867 6.6875 13.5 6.6875H14.4375ZM6.48614 13.9861C6.61507 13.8572 6.6875 13.6823 6.6875 13.5V10.5C6.6875 10.3177 6.61507 10.1428 6.48614 10.0139C6.3572 9.88493 6.18233 9.8125 6 9.8125H3C2.81766 9.8125 2.6428 9.88493 2.51386 10.0139C2.38493 10.1428 2.3125 10.3177 2.3125 10.5V13.5C2.3125 13.6823 2.38493 13.8572 2.51386 13.9861C2.6428 14.1151 2.81766 14.1875 3 14.1875H6C6.18233 14.1875 6.3572 14.1151 6.48614 13.9861ZM15.2639 14.5139C15.1349 14.6428 15.0625 14.8177 15.0625 15V19.5C15.0625 19.6823 15.1349 19.8572 15.2639 19.9861C15.3928 20.1151 15.5677 20.1875 15.75 20.1875H20.25C20.4323 20.1875 20.6072 20.1151 20.7361 19.9861C20.8651 19.8572 20.9375 19.6823 20.9375 19.5V15C20.9375 14.8177 20.8651 14.6428 20.7361 14.5139C20.6072 14.3849 20.4323 14.3125 20.25 14.3125H15.75C15.5677 14.3125 15.3928 14.3849 15.2639 14.5139ZM15.2639 4.01386C15.1349 4.1428 15.0625 4.31766 15.0625 4.5V9C15.0625 9.18233 15.1349 9.3572 15.2639 9.48614C15.3928 9.61507 15.5677 9.6875 15.75 9.6875H20.25C20.4323 9.6875 20.6072 9.61507 20.7361 9.48614C20.8651 9.3572 20.9375 9.18233 20.9375 9V4.5C20.9375 4.31767 20.8651 4.1428 20.7361 4.01386C20.6072 3.88493 20.4323 3.8125 20.25 3.8125H15.75C15.5677 3.8125 15.3928 3.88493 15.2639 4.01386Z" stroke="white"/>
<path d="M14.4375 6.6875H14.9375V6.1875V4.5C14.9375 4.28451 15.0231 4.07785 15.1755 3.92548C15.3278 3.7731 15.5345 3.6875 15.75 3.6875H20.25C20.4655 3.6875 20.6722 3.7731 20.8245 3.92548C20.9769 4.07785 21.0625 4.28451 21.0625 4.5V9C21.0625 9.21549 20.9769 9.42215 20.8245 9.57452C20.6722 9.7269 20.4655 9.8125 20.25 9.8125H15.75C15.5345 9.8125 15.3278 9.7269 15.1755 9.57452C15.0231 9.42215 14.9375 9.21549 14.9375 9V7.3125V6.8125H14.4375H13.5C12.9198 6.8125 12.3634 7.04297 11.9532 7.4532C11.543 7.86344 11.3125 8.41984 11.3125 9V15C11.3125 15.5802 11.543 16.1366 11.9532 16.5468C12.3634 16.957 12.9198 17.1875 13.5 17.1875H14.4375H14.9375V16.6875V15C14.9375 14.7845 15.0231 14.5778 15.1755 14.4255C15.3278 14.2731 15.5345 14.1875 15.75 14.1875H20.25C20.4655 14.1875 20.6722 14.2731 20.8245 14.4255C20.9769 14.5778 21.0625 14.7845 21.0625 15V19.5C21.0625 19.7155 20.9769 19.9222 20.8245 20.0745C20.6722 20.2269 20.4655 20.3125 20.25 20.3125H15.75C15.5345 20.3125 15.3278 20.2269 15.1755 20.0745C15.0231 19.9222 14.9375 19.7155 14.9375 19.5V17.8125V17.3125H14.4375H13.5C12.8867 17.3125 12.2985 17.0689 11.8648 16.6352C11.4311 16.2015 11.1875 15.6133 11.1875 15V12.5625V12.0625H10.6875H7.3125H6.8125V12.5625V13.5C6.8125 13.7155 6.7269 13.9222 6.57452 14.0745C6.42215 14.2269 6.21549 14.3125 6 14.3125H3C2.78451 14.3125 2.57785 14.2269 2.42548 14.0745C2.2731 13.9222 2.1875 13.7155 2.1875 13.5V10.5C2.1875 10.2845 2.2731 10.0778 2.42548 9.92548C2.57785 9.7731 2.78451 9.6875 3 9.6875H6C6.21549 9.6875 6.42215 9.7731 6.57452 9.92548C6.7269 10.0778 6.8125 10.2845 6.8125 10.5V11.4375V11.9375H7.3125H10.6875H11.1875V11.4375V9C11.1875 8.38669 11.4311 7.79849 11.8648 7.36482C12.2985 6.93114 12.8867 6.6875 13.5 6.6875H14.4375ZM6.48614 13.9861C6.61507 13.8572 6.6875 13.6823 6.6875 13.5V10.5C6.6875 10.3177 6.61507 10.1428 6.48614 10.0139C6.3572 9.88493 6.18233 9.8125 6 9.8125H3C2.81766 9.8125 2.6428 9.88493 2.51386 10.0139C2.38493 10.1428 2.3125 10.3177 2.3125 10.5V13.5C2.3125 13.6823 2.38493 13.8572 2.51386 13.9861C2.6428 14.1151 2.81766 14.1875 3 14.1875H6C6.18233 14.1875 6.3572 14.1151 6.48614 13.9861ZM15.2639 14.5139C15.1349 14.6428 15.0625 14.8177 15.0625 15V19.5C15.0625 19.6823 15.1349 19.8572 15.2639 19.9861C15.3928 20.1151 15.5677 20.1875 15.75 20.1875H20.25C20.4323 20.1875 20.6072 20.1151 20.7361 19.9861C20.8651 19.8572 20.9375 19.6823 20.9375 19.5V15C20.9375 14.8177 20.8651 14.6428 20.7361 14.5139C20.6072 14.3849 20.4323 14.3125 20.25 14.3125H15.75C15.5677 14.3125 15.3928 14.3849 15.2639 14.5139ZM15.2639 4.01386C15.1349 4.1428 15.0625 4.31766 15.0625 4.5V9C15.0625 9.18233 15.1349 9.3572 15.2639 9.48614C15.3928 9.61507 15.5677 9.6875 15.75 9.6875H20.25C20.4323 9.6875 20.6072 9.61507 20.7361 9.48614C20.8651 9.3572 20.9375 9.18233 20.9375 9V4.5C20.9375 4.31767 20.8651 4.1428 20.7361 4.01386C20.6072 3.88493 20.4323 3.8125 20.25 3.8125H15.75C15.5677 3.8125 15.3928 3.88493 15.2639 4.01386Z" stroke="white" stroke-opacity="0.2"/>
</svg>
